<?xml version="1.0" encoding="UTF-8"?>
<svg id="Layer_1" data-name="Layer 1" xmlns="http://www.w3.org/2000/svg" viewBox="0 0 444.805 302.071">
  <metadata><?xpacket begin="﻿" id="W5M0MpCehiHzreSzNTczkc9d"?>
<x:xmpmeta xmlns:x="adobe:ns:meta/" x:xmptk="Adobe XMP Core 9.1-c001 79.a8d4753, 2023/03/23-08:56:37        ">
   <rdf:RDF xmlns:rdf="http://www.w3.org/1999/02/22-rdf-syntax-ns#">
      <rdf:Description rdf:about=""
            xmlns:dc="http://purl.org/dc/elements/1.1/"
            xmlns:xmp="http://ns.adobe.com/xap/1.0/"
            xmlns:xmpMM="http://ns.adobe.com/xap/1.0/mm/"
            xmlns:stEvt="http://ns.adobe.com/xap/1.0/sType/ResourceEvent#">
         <dc:subject>
            <rdf:Bag>
               <rdf:li>product icon</rdf:li>
               <rdf:li>tanzu</rdf:li>
               <rdf:li>data</rdf:li>
               <rdf:li>solutions</rdf:li>
               <rdf:li>rgb</rdf:li>
            </rdf:Bag>
         </dc:subject>
         <xmp:MetadataDate>2023-10-02T14:53:34-04:00</xmp:MetadataDate>
         <xmpMM:InstanceID>xmp.iid:7ea4a295-0b61-40b6-9f51-e668e3efb958</xmpMM:InstanceID>
         <xmpMM:DocumentID>xmp.did:7ea4a295-0b61-40b6-9f51-e668e3efb958</xmpMM:DocumentID>
         <xmpMM:OriginalDocumentID>xmp.did:7ea4a295-0b61-40b6-9f51-e668e3efb958</xmpMM:OriginalDocumentID>
         <xmpMM:History>
            <rdf:Seq>
               <rdf:li>
                  <rdf:Description>
                     <stEvt:action>saved</stEvt:action>
                     <stEvt:instanceID>xmp.iid:7ea4a295-0b61-40b6-9f51-e668e3efb958</stEvt:instanceID>
                     <stEvt:when>2023-10-02T14:53:34-04:00</stEvt:when>
                     <stEvt:softwareAgent>Adobe Bridge 2024</stEvt:softwareAgent>
                     <stEvt:changed>/metadata</stEvt:changed>
                  </rdf:Description>
               </rdf:li>
            </rdf:Seq>
         </xmpMM:History>
      </rdf:Description>
   </rdf:RDF>
</x:xmpmeta>
                                                                                                    
                                                                                                    
                                                                                                    
                                                                                                    
                                                                                                    
                                                                                                    
                                                                                                    
                                                                                                    
                                                                                                    
                                                                                                    
                                                                                                    
                                                                                                    
                                                                                                    
                                                                                                    
                                                                                                    
                                                                                                    
                                                                                                    
                                                                                                    
                                                                                                    
                                                                                                    
                           
<?xpacket end="w"?></metadata>
<defs>
    <style>
      .cls-1 {
        fill: #78be20;
      }

      .cls-1, .cls-2, .cls-3, .cls-4, .cls-5 {
        stroke-width: 0px;
      }

      .cls-2 {
        fill: #717074;
      }

      .cls-3 {
        fill: #1d428a;
      }

      .cls-4 {
        fill: #00c1d5;
      }

      .cls-5 {
        fill: #0091da;
      }
    </style>
  </defs>
  <g>
    <path class="cls-2" d="m72.686,167.658l-16.059,36.411h-4.506l-16.059-36.411h4.505l13.833,31.323,13.78-31.323h4.505Z"/>
    <path class="cls-2" d="m78.388,167.658h4.135l13.515,25.388,13.515-25.388h4.135v36.411h-4.135v-27.507l-13.515,25.387-13.515-25.387v27.507h-4.135v-36.411Z"/>
    <path class="cls-2" d="m118.939,176.669h4.239l6.837,22.101,7.474-22.101h3.444l7.474,22.101,6.837-22.101h4.24l-9.223,27.4h-3.763l-7.261-21.889-7.367,21.889h-3.763l-9.169-27.4Z"/>
    <path class="cls-2" d="m181.668,179.133c1.89,2.067,2.836,4.815,2.836,8.242v16.694h-3.976v-4.293c-.953,1.556-2.323,2.766-4.107,3.631s-3.63,1.299-5.538,1.299c-2.934,0-5.336-.796-7.208-2.386-1.873-1.59-2.809-3.71-2.809-6.359,0-1.767.484-3.348,1.457-4.744.972-1.396,2.279-2.473,3.922-3.232,1.644-.76,3.437-1.14,5.38-1.14,2.756,0,5.724.513,8.903,1.537v-1.007c0-2.227-.565-4.108-1.695-5.645-1.132-1.537-3.039-2.306-5.725-2.306-1.237,0-2.5.221-3.789.662-1.29.442-2.694,1.052-4.214,1.829l-1.59-3.233c3.533-1.767,6.819-2.65,9.858-2.65,3.639,0,6.403,1.034,8.294,3.101Zm-4.505,20.564c1.749-1.007,2.87-2.412,3.365-4.214v-4.187c-2.686-.742-5.441-1.113-8.268-1.113-2.085,0-3.86.53-5.326,1.59-1.467,1.061-2.2,2.403-2.2,4.028,0,1.661.645,2.977,1.935,3.948,1.29.973,2.924,1.458,4.902,1.458s3.843-.504,5.592-1.511Z"/>
    <path class="cls-2" d="m199.916,177.649c1.872-1.078,4.062-1.617,6.572-1.617v3.552c-2.05,0-3.878.389-5.485,1.166-1.608.777-2.862,1.863-3.764,3.259-.9,1.396-1.352,2.978-1.352,4.744v15.316h-3.975v-27.4h3.975v5.353c.812-1.837,2.155-3.294,4.028-4.372Z"/>
    <path class="cls-2" d="m226.824,200.2c1.644-.636,2.889-1.412,3.737-2.332l2.438,2.598c-1.166,1.271-2.801,2.297-4.902,3.074-2.103.776-4.144,1.166-6.122,1.166-2.438,0-4.717-.619-6.837-1.855-2.119-1.236-3.825-2.959-5.114-5.168-1.29-2.207-1.935-4.672-1.935-7.393,0-2.65.609-5.07,1.829-7.262,1.219-2.19,2.861-3.903,4.929-5.141,2.067-1.236,4.319-1.855,6.758-1.855,4.098,0,7.287,1.432,9.566,4.293,2.278,2.862,3.418,6.714,3.418,11.555h-22.419c.282,2.721,1.316,4.947,3.101,6.678,1.784,1.731,4.002,2.597,6.651,2.597,1.625,0,3.26-.317,4.902-.954Zm-11.421-18.205c-1.768,1.608-2.827,3.719-3.181,6.333h18.444c-.283-2.614-1.185-4.725-2.703-6.333-1.52-1.607-3.586-2.411-6.201-2.411-2.474,0-4.593.804-6.359,2.411Z"/>
    <path class="cls-2" d="m264.798,171.581h-12.243v-3.923h28.62v3.923h-12.243v32.488h-4.134v-32.488Z"/>
    <path class="cls-2" d="m299.725,179.133c1.89,2.067,2.835,4.815,2.835,8.242v16.694h-3.975v-4.293c-.954,1.556-2.324,2.766-4.107,3.631-1.785.865-3.631,1.299-5.539,1.299-2.933,0-5.335-.796-7.208-2.386s-2.809-3.71-2.809-6.359c0-1.767.485-3.348,1.458-4.744.971-1.396,2.278-2.473,3.922-3.232,1.643-.76,3.436-1.14,5.379-1.14,2.756,0,5.725.513,8.904,1.537v-1.007c0-2.227-.565-4.108-1.696-5.645-1.131-1.537-3.039-2.306-5.724-2.306-1.237,0-2.5.221-3.79.662-1.29.442-2.694,1.052-4.213,1.829l-1.59-3.233c3.532-1.767,6.818-2.65,9.857-2.65,3.639,0,6.404,1.034,8.295,3.101Zm-4.505,20.564c1.749-1.007,2.87-2.412,3.365-4.214v-4.187c-2.686-.742-5.441-1.113-8.268-1.113-2.086,0-3.861.53-5.327,1.59-1.467,1.061-2.199,2.403-2.199,4.028,0,1.661.645,2.977,1.935,3.948,1.289.973,2.923,1.458,4.902,1.458s3.843-.504,5.592-1.511Z"/>
    <path class="cls-2" d="m328.307,177.357c1.555.884,2.765,2.129,3.631,3.736.865,1.608,1.298,3.454,1.298,5.539v17.437h-3.975v-16.907c0-2.261-.636-4.089-1.908-5.485-1.271-1.396-2.915-2.093-4.929-2.093-1.52,0-2.934.317-4.24.953-1.308.637-2.341,1.493-3.101,2.571s-1.14,2.252-1.14,3.524v17.437h-3.975v-27.4h3.975v4.346c.812-1.484,2.031-2.685,3.657-3.604,1.625-.918,3.409-1.378,5.354-1.378,2.014,0,3.797.442,5.353,1.325Z"/>
    <path class="cls-2" d="m337.587,200.942l16.165-20.511h-15.847v-3.763h21.2v3.127l-16.219,20.511h16.324v3.763h-21.624v-3.127Z"/>
    <path class="cls-2" d="m386.797,176.669v27.4h-3.975v-4.346c-.813,1.484-2.032,2.686-3.657,3.604-1.626.919-3.41,1.379-5.354,1.379-2.014,0-3.798-.442-5.353-1.325-1.556-.883-2.766-2.129-3.631-3.736-.866-1.607-1.298-3.454-1.298-5.539v-17.437h3.975v16.906c0,2.262.636,4.091,1.908,5.486,1.271,1.396,2.915,2.093,4.929,2.093,1.519,0,2.933-.317,4.24-.954,1.307-.636,2.34-1.492,3.101-2.57.759-1.077,1.14-2.252,1.14-3.524v-17.437h3.975Z"/>
    <path class="cls-2" d="m403.688,166.094c1.055.616,1.895,1.451,2.52,2.506.626,1.055.938,2.198.938,3.43s-.312,2.376-.938,3.431c-.625,1.055-1.465,1.895-2.52,2.52-1.055.626-2.198.938-3.43.938-1.251,0-2.404-.312-3.458-.938-1.055-.625-1.896-1.465-2.521-2.52s-.938-2.198-.938-3.431.312-2.375.938-3.43,1.466-1.89,2.521-2.506c1.054-.616,2.207-.924,3.458-.924,1.231,0,2.375.308,3.43.924Zm-.476,11.032c.904-.522,1.619-1.236,2.142-2.143.522-.905.784-1.89.784-2.954s-.267-2.044-.798-2.939c-.532-.896-1.246-1.605-2.143-2.128-.896-.522-1.876-.784-2.939-.784s-2.049.262-2.954.784c-.906.522-1.624,1.231-2.156,2.128-.532.896-.798,1.876-.798,2.939s.266,2.044.798,2.94c.532.896,1.25,1.609,2.156,2.142.905.532,1.89.798,2.954.798s2.048-.261,2.954-.783Zm.279-4.69c-.326.476-.77.816-1.33,1.022l1.96,2.8h-2.1l-1.792-2.548h-1.288v2.548h-2.1v-8.4h3.947c.952,0,1.723.267,2.311.798.588.532.882,1.237.882,2.114,0,.635-.163,1.19-.49,1.666Zm-4.55-.798h1.624c.354,0,.645-.079.868-.238.224-.158.336-.368.336-.63,0-.242-.112-.443-.336-.602-.224-.159-.514-.238-.868-.238h-1.624v1.708Z"/>
    <path class="cls-2" d="m40.525,227.658h12.296c3.816,0,7.216.778,10.202,2.332,2.985,1.556,5.317,3.71,6.996,6.467,1.678,2.756,2.518,5.883,2.518,9.381s-.84,6.634-2.518,9.407c-1.679,2.774-4.011,4.938-6.996,6.492-2.986,1.556-6.386,2.332-10.202,2.332h-12.296v-36.411Zm12.296,32.648c3.003,0,5.68-.618,8.029-1.855,2.35-1.236,4.188-2.949,5.512-5.141,1.325-2.19,1.988-4.682,1.988-7.473s-.663-5.273-1.988-7.447c-1.324-2.173-3.162-3.877-5.512-5.114-2.35-1.236-5.026-1.854-8.029-1.854h-8.162v28.885h8.162Z"/>
    <path class="cls-2" d="m97.287,239.133c1.89,2.067,2.836,4.815,2.836,8.242v16.694h-3.976v-4.293c-.953,1.556-2.323,2.766-4.107,3.631s-3.63,1.299-5.538,1.299c-2.934,0-5.336-.796-7.208-2.386-1.873-1.59-2.809-3.71-2.809-6.359,0-1.767.484-3.348,1.457-4.744.972-1.396,2.279-2.473,3.922-3.232,1.644-.76,3.437-1.14,5.38-1.14,2.756,0,5.724.513,8.903,1.537v-1.007c0-2.227-.565-4.108-1.695-5.645-1.132-1.537-3.039-2.306-5.725-2.306-1.237,0-2.5.221-3.789.662-1.29.442-2.694,1.052-4.214,1.829l-1.59-3.233c3.533-1.767,6.819-2.65,9.858-2.65,3.639,0,6.403,1.034,8.294,3.101Zm-4.505,20.564c1.749-1.007,2.87-2.412,3.365-4.214v-4.187c-2.686-.742-5.441-1.113-8.268-1.113-2.085,0-3.86.53-5.326,1.59-1.467,1.061-2.2,2.403-2.2,4.028,0,1.661.645,2.977,1.935,3.948,1.29.973,2.924,1.458,4.902,1.458s3.843-.504,5.592-1.511Z"/>
    <path class="cls-2" d="m119.648,262.957c-1.484,1.166-3.18,1.749-5.088,1.749-1.943,0-3.543-.654-4.797-1.962-1.255-1.307-1.882-2.985-1.882-5.034v-17.49h-4.293v-3.551h4.293v-7.526h3.976v7.526h6.73v3.551h-6.73v17.49c0,.989.291,1.811.874,2.464.583.654,1.28.98,2.094.98.601,0,1.147-.105,1.644-.317.494-.212.9-.478,1.219-.795l1.961,2.915Z"/>
    <path class="cls-2" d="m142.437,239.133c1.89,2.067,2.836,4.815,2.836,8.242v16.694h-3.976v-4.293c-.953,1.556-2.323,2.766-4.107,3.631s-3.63,1.299-5.538,1.299c-2.934,0-5.336-.796-7.208-2.386-1.873-1.59-2.809-3.71-2.809-6.359,0-1.767.484-3.348,1.457-4.744.972-1.396,2.279-2.473,3.922-3.232,1.644-.76,3.437-1.14,5.38-1.14,2.756,0,5.724.513,8.903,1.537v-1.007c0-2.227-.565-4.108-1.695-5.645-1.132-1.537-3.039-2.306-5.725-2.306-1.237,0-2.5.221-3.789.662-1.29.442-2.694,1.052-4.214,1.829l-1.59-3.233c3.533-1.767,6.819-2.65,9.858-2.65,3.639,0,6.403,1.034,8.294,3.101Zm-4.505,20.564c1.749-1.007,2.87-2.412,3.365-4.214v-4.187c-2.686-.742-5.441-1.113-8.268-1.113-2.085,0-3.86.53-5.326,1.59-1.467,1.061-2.2,2.403-2.2,4.028,0,1.661.645,2.977,1.935,3.948,1.29.973,2.924,1.458,4.902,1.458s3.843-.504,5.592-1.511Z"/>
    <path class="cls-2" d="m166.26,258.876l2.597-3.233c1.66,1.661,3.463,2.95,5.406,3.869,1.942.919,4.115,1.378,6.519,1.378,1.803,0,3.339-.292,4.611-.875,1.271-.583,2.234-1.359,2.889-2.332.653-.971.98-2.021.98-3.153,0-1.837-.769-3.241-2.306-4.213s-4.037-1.863-7.5-2.677c-2.649-.636-4.832-1.343-6.545-2.12-1.714-.776-3.039-1.828-3.976-3.153s-1.404-2.995-1.404-5.009c0-1.908.53-3.657,1.59-5.247,1.061-1.59,2.518-2.835,4.373-3.736,1.854-.901,3.93-1.352,6.228-1.352,2.579,0,4.902.45,6.97,1.352,2.066.901,4.001,2.183,5.803,3.843l-2.544,3.232c-1.555-1.483-3.215-2.632-4.981-3.444-1.768-.812-3.587-1.22-5.459-1.22-1.449,0-2.774.283-3.976.849s-2.138,1.334-2.809,2.306c-.672.972-1.007,2.005-1.007,3.101,0,1.731.759,3.047,2.278,3.948,1.52.9,4.028,1.775,7.526,2.623,3.887.92,6.846,2.165,8.878,3.736,2.031,1.573,3.047,3.843,3.047,6.811,0,1.979-.485,3.764-1.457,5.354-.973,1.59-2.43,2.845-4.373,3.763-1.943.919-4.275,1.378-6.996,1.378-5.653,0-10.44-1.925-14.362-5.776Z"/>
    <path class="cls-2" d="m204.849,262.771c-2.173-1.29-3.896-3.039-5.168-5.247-1.271-2.208-1.907-4.603-1.907-7.182s.636-4.964,1.907-7.155c1.272-2.19,2.995-3.931,5.168-5.221,2.173-1.289,4.531-1.935,7.075-1.935s4.894.646,7.049,1.935c2.155,1.29,3.869,3.03,5.142,5.221,1.271,2.191,1.908,4.576,1.908,7.155s-.637,4.974-1.908,7.182c-1.272,2.208-2.986,3.957-5.142,5.247s-4.505,1.935-7.049,1.935-4.902-.645-7.075-1.935Zm12.058-3.074c1.519-.972,2.729-2.287,3.63-3.948.901-1.661,1.352-3.463,1.352-5.406s-.45-3.736-1.352-5.38c-.9-1.643-2.111-2.949-3.63-3.922-1.52-.972-3.18-1.457-4.982-1.457s-3.472.485-5.008,1.457c-1.537.973-2.757,2.279-3.657,3.922-.901,1.644-1.352,3.437-1.352,5.38s.45,3.745,1.352,5.406c.9,1.661,2.12,2.977,3.657,3.948,1.536.972,3.206,1.457,5.008,1.457s3.463-.485,4.982-1.457Z"/>
    <path class="cls-2" d="m231.841,227.022h3.976v37.047h-3.976v-37.047Z"/>
    <path class="cls-2" d="m266.497,236.669v27.4h-3.975v-4.346c-.813,1.484-2.032,2.686-3.657,3.604-1.626.919-3.41,1.379-5.354,1.379-2.014,0-3.798-.442-5.353-1.325-1.556-.883-2.766-2.129-3.631-3.736-.866-1.607-1.298-3.454-1.298-5.539v-17.437h3.975v16.906c0,2.262.636,4.091,1.908,5.486,1.271,1.396,2.915,2.093,4.929,2.093,1.519,0,2.933-.317,4.24-.954,1.307-.636,2.34-1.492,3.101-2.57.759-1.077,1.14-2.252,1.14-3.524v-17.437h3.975Z"/>
    <path class="cls-2" d="m286.908,262.957c-1.483,1.166-3.18,1.749-5.088,1.749-1.943,0-3.542-.654-4.796-1.962-1.255-1.307-1.882-2.985-1.882-5.034v-17.49h-4.293v-3.551h4.293v-7.526h3.975v7.526h6.731v3.551h-6.731v17.49c0,.989.292,1.811.875,2.464.583.654,1.28.98,2.094.98.6,0,1.147-.105,1.643-.317.494-.212.901-.478,1.219-.795l1.961,2.915Z"/>
    <path class="cls-2" d="m291.391,230.891c-.513-.53-.769-1.147-.769-1.855s.256-1.315.769-1.828,1.14-.769,1.882-.769c.706,0,1.315.257,1.828.769.512.513.769,1.122.769,1.828s-.257,1.325-.769,1.855c-.513.53-1.122.795-1.828.795-.742,0-1.37-.265-1.882-.795Zm-.133,5.777h3.976v27.4h-3.976v-27.4Z"/>
    <path class="cls-2" d="m307.943,262.771c-2.173-1.29-3.896-3.039-5.168-5.247-1.271-2.208-1.907-4.603-1.907-7.182s.636-4.964,1.907-7.155c1.272-2.19,2.995-3.931,5.168-5.221,2.173-1.289,4.531-1.935,7.075-1.935s4.894.646,7.049,1.935c2.155,1.29,3.869,3.03,5.142,5.221,1.271,2.191,1.908,4.576,1.908,7.155s-.637,4.974-1.908,7.182c-1.272,2.208-2.986,3.957-5.142,5.247s-4.505,1.935-7.049,1.935-4.902-.645-7.075-1.935Zm12.058-3.074c1.519-.972,2.729-2.287,3.63-3.948.901-1.661,1.352-3.463,1.352-5.406s-.45-3.736-1.352-5.38c-.9-1.643-2.111-2.949-3.63-3.922-1.52-.972-3.18-1.457-4.982-1.457s-3.472.485-5.008,1.457c-1.537.973-2.757,2.279-3.657,3.922-.901,1.644-1.352,3.437-1.352,5.38s.45,3.745,1.352,5.406c.9,1.661,2.12,2.977,3.657,3.948,1.536.972,3.206,1.457,5.008,1.457s3.463-.485,4.982-1.457Z"/>
    <path class="cls-2" d="m353.204,237.357c1.554.884,2.764,2.129,3.63,3.736.865,1.608,1.299,3.454,1.299,5.539v17.437h-3.976v-16.907c0-2.261-.636-4.089-1.907-5.485-1.272-1.396-2.915-2.093-4.93-2.093-1.52,0-2.933.317-4.239.953-1.308.637-2.342,1.493-3.101,2.571-.761,1.078-1.14,2.252-1.14,3.524v17.437h-3.976v-27.4h3.976v4.346c.812-1.484,2.031-2.685,3.657-3.604,1.624-.918,3.409-1.378,5.353-1.378,2.014,0,3.798.442,5.354,1.325Z"/>
    <path class="cls-2" d="m368.187,263.645c-1.996-.706-3.808-1.713-5.433-3.021l2.067-2.915c3.145,2.297,6.235,3.444,9.274,3.444,1.803,0,3.26-.388,4.373-1.166,1.113-.776,1.669-1.819,1.669-3.127,0-.918-.3-1.687-.9-2.306-.602-.617-1.352-1.104-2.253-1.457-.9-.353-2.146-.76-3.736-1.219-3.357-.954-5.724-2.005-7.102-3.153s-2.067-2.694-2.067-4.638c0-2.438.901-4.391,2.703-5.856s4.099-2.2,6.89-2.2c1.66,0,3.339.274,5.035.822s3.286,1.298,4.771,2.252l-1.908,3.074c-2.722-1.73-5.354-2.597-7.897-2.597-1.625,0-2.968.354-4.027,1.06-1.061.707-1.591,1.696-1.591,2.968,0,.778.229,1.414.689,1.908.459.495,1.147.937,2.067,1.325.918.389,2.366.9,4.346,1.537,1.942.601,3.516,1.184,4.717,1.749s2.208,1.352,3.021,2.358c.812,1.007,1.219,2.323,1.219,3.948,0,2.474-.946,4.471-2.836,5.989-1.891,1.52-4.284,2.279-7.182,2.279-1.943,0-3.913-.354-5.909-1.061Z"/>
    <path class="cls-2" d="m390.672,229.958h-2.184v-2.101h6.607v2.101h-2.24v6.3h-2.184v-6.3Zm5.768-2.101h2.185l2.492,4.172,2.491-4.172h2.212v8.4h-2.212v-4.676l-2.491,4.199-2.492-4.199v4.676h-2.185v-8.4Z"/>
  </g>
  <g id="icon-only">
    <g>
      <path class="cls-1" d="m275.097,109.21l-25.791,32.347-2.107-4.41,23.153-29.02,4.745,1.083Zm-77.472,27.918l-23.153-29-4.764,1.083,25.791,32.347,2.126-4.43Z"/>
      <path class="cls-3" d="m168.172,102.476l9.214-40.341,3.819,3.032-8.269,36.206-4.764,1.103Zm108.461,0l-9.214-40.341-3.819,3.032,8.269,36.206,4.764,1.103Z"/>
      <path class="cls-4" d="m240.978,140.12h-37.151l-2.107,4.41h41.384l-2.126-4.41Zm18.31-80.327l-33.45-16.105v-4.902l37.289,17.955-3.839,3.052Zm-40.321-21.007l-37.289,17.955,3.859,3.071,33.43-16.124v-4.902Z"/>
      <path class="cls-5" d="m240.781,131.713h-36.757l-22.917-28.744,8.19-35.852,33.115-15.908,33.115,15.947,8.19,35.852-22.937,28.705Zm-34.671-4.331h32.564l20.318-25.457-7.245-31.757-29.335-14.156-29.335,14.156-7.285,31.737,20.318,25.476Z"/>
    </g>
  </g>
</svg>