<svg xmlns="http://www.w3.org/2000/svg" viewBox="0 0 16 16"><polygon points="7.466 0.272 7.466 0.979 2.638 3.304 2.084 2.864 7.466 0.272" fill="#00c1d5"/><polygon points="13.844 2.864 13.29 3.304 8.462 0.979 8.462 0.272 13.844 2.864" fill="#00c1d5"/><path d="M15.381,7.658a6.741,6.741,0,0,0-.7-.215l-.768-3.361.554-.44Z" fill="#1d428a"/><polygon points="2.017 4.082 0.824 9.307 0.134 9.466 1.463 3.642 2.017 4.082" fill="#1d428a"/><polygon points="4.387 14.469 4.08 15.107 0.356 10.437 1.045 10.278 4.387 14.469" fill="#78be20"/><path d="M7.261,14.9a1.706,1.706,0,0,0,.326.638H4.977l.307-.638Z" fill="#00c1d5"/><path d="M13.447,7.228q-.325-.036-.666-.052l-.424-1.859-.124-.543-.494-.238L8.462,2.958l-.5-.24-.5.24L4.189,4.536,3.7,4.774l-.124.543L2.762,8.86l-.122.533.349.437,2.263,2.838.343.43H7.21v.637H5.288l-.342-.429L2.3,9.989l-.349-.438.121-.532.946-4.142.124-.544L3.635,4.1,7.466,2.25l.5-.24.5.24L12.293,4.1h0l.492.237.124.545Z" fill="#0091da"/><polygon points="8.452 12.079 8.451 12.079 8.451 12.07 8.452 12.079" fill="#fff"/><path d="M15.914,14.263v0Z" fill="#fff"/><polygon points="8.452 12.079 8.451 12.079 8.451 12.07 8.452 12.079" fill="#1d428a"/><path d="M15.914,14.251v.012h0Z" fill="#1d428a"/><path d="M15.914,9.882v4.381c0,.337-.221.81-1.208,1.172a7.591,7.591,0,0,1-2.523.386,7.591,7.591,0,0,1-2.523-.386c-1-.366-1.209-.846-1.209-1.184h.638c0,.147.244.385.79.586a6.95,6.95,0,0,0,2.3.347,6.94,6.94,0,0,0,2.3-.347c.547-.2.791-.439.791-.586V12.987a3.306,3.306,0,0,1-.571.268,7.591,7.591,0,0,1-2.523.386,7.591,7.591,0,0,1-2.523-.386c-.991-.364-1.2-.839-1.208-1.176V9.89h.638c0,.147.244.386.79.586a6.95,6.95,0,0,0,2.3.347,7.8,7.8,0,0,0,1.844-.207v.654a8.6,8.6,0,0,1-1.844.19,7.591,7.591,0,0,1-2.523-.386,3.164,3.164,0,0,1-.571-.268V12.07c0,.148.244.386.79.586a6.95,6.95,0,0,0,2.3.347,6.94,6.94,0,0,0,2.3-.347c.547-.2.791-.438.791-.586V9.89c0-.148-.244-.386-.791-.586a6.938,6.938,0,0,0-2.3-.348,7.46,7.46,0,0,0-2.043.262V8.557a8.381,8.381,0,0,1,2.043-.238,7.591,7.591,0,0,1,2.523.386C15.7,9.069,15.911,9.544,15.914,9.882Z" fill="#1d428a"/></svg>